<svg width="30" height="24" viewBox="0 0 30 24" fill="none" xmlns="http://www.w3.org/2000/svg">
<path d="M10.3334 11.3334C13.2667 11.3334 15.6667 8.93335 15.6667 6.00002C15.6667 3.06669 13.2667 0.666687 10.3334 0.666687C7.40004 0.666687 5.00004 3.06669 5.00004 6.00002C5.00004 8.93335 7.40004 11.3334 10.3334 11.3334ZM16.3334 10.1334C18.6 12 21.9334 11.6 23.8 9.33335C25.6667 7.06669 25.2667 3.73335 23 1.86669C22.0667 1.06669 20.8667 0.666687 19.6667 0.666687C18.4667 0.666687 17.2667 1.06669 16.3334 1.86669C18.6 3.73335 19 6.93335 17.1334 9.33335C17 9.60002 16.6 9.86669 16.3334 10.1334ZM29.5334 21.8667C28.7334 16.9334 24.6 13.3334 19.6667 13.3334C18.4667 13.3334 17.4 13.4667 16.3334 13.8667C19.8 15.0667 22.3334 18.1334 22.8667 21.7334C23 22.4 22.4667 23.2 21.6667 23.2H21.5334H28.2C29 23.2 29.5334 22.6667 29.5334 21.8667C29.5334 22 29.5334 21.8667 29.5334 21.8667ZM10.3334 13.3334C5.40004 13.3334 1.13337 16.9334 0.466708 21.8667C0.333375 22.5334 0.866708 23.3334 1.66671 23.3334H1.80004H18.8667C19.6667 23.3334 20.2 22.8 20.2 22V21.8667C19.5334 16.9334 15.2667 13.3334 10.3334 13.3334Z" fill="black"/>
</svg>
