<svg width="27" height="28" viewBox="0 0 27 28" fill="none" xmlns="http://www.w3.org/2000/svg">
<path d="M25.7138 18.28L23.1626 15.8667V9.92C23.1965 7.71177 22.38 5.56655 20.8638 3.88045C19.3475 2.19435 17.234 1.08125 14.9135 0.746668C13.5667 0.579824 12.1976 0.685088 10.8975 1.05544C9.59739 1.42578 8.39621 2.0527 7.37407 2.89435C6.35194 3.736 5.53237 4.77304 4.97005 5.93626C4.40772 7.09948 4.11557 8.36215 4.11309 9.64V15.8667L1.56182 18.28C1.24136 18.5865 1.02405 18.975 0.937047 19.3971C0.850044 19.8191 0.897213 20.2559 1.07266 20.6529C1.2481 21.0498 1.54404 21.3893 1.92347 21.6289C2.3029 21.8685 2.74899 21.9976 3.20597 22H7.96834V22.4533C8.03455 23.8069 8.66846 25.0806 9.73116 25.9954C10.7939 26.9101 12.1987 27.3912 13.6378 27.3333C15.077 27.3912 16.4818 26.9101 17.5445 25.9954C18.6072 25.0806 19.2411 23.8069 19.3073 22.4533V22H24.0697C24.5267 21.9976 24.9728 21.8685 25.3522 21.6289C25.7316 21.3893 26.0276 21.0498 26.203 20.6529C26.3784 20.2559 26.4256 19.8191 26.3386 19.3971C26.2516 18.975 26.0343 18.5865 25.7138 18.28ZM16.4726 22.4533C16.394 23.0947 16.0554 23.6827 15.5273 24.0951C14.9992 24.5074 14.3224 24.7121 13.6378 24.6667C12.9533 24.7121 12.2764 24.5074 11.7484 24.0951C11.2203 23.6827 10.8817 23.0947 10.8031 22.4533V22H16.4726V22.4533Z" fill="#A098AE"/>
</svg>
