<svg width="26" height="24" viewBox="0 0 26 24" fill="none" xmlns="http://www.w3.org/2000/svg">
<path fill-rule="evenodd" clip-rule="evenodd" d="M12.254 0C11.3734 0 10.6594 0.671573 10.6594 1.5L10.468 2.76051C10.2966 3.88912 8.90233 4.43241 7.93278 3.74837L6.84995 2.98439C6.22724 2.3986 5.21764 2.3986 4.59493 2.98439L3.46741 4.04505C2.8447 4.63084 2.8447 5.58059 3.46741 6.16637L4.27954 7.185C5.0067 8.09707 4.42917 9.40867 3.22941 9.56987L1.88946 9.75C1.00882 9.75 0.294922 10.4216 0.294922 11.25V12.75C0.294922 13.5784 1.00882 14.25 1.88946 14.25L3.22942 14.4301C4.42918 14.5913 5.00672 15.9029 4.27955 16.8149L3.46741 17.8336C2.8447 18.4195 2.8447 19.3692 3.46741 19.9549L4.59493 21.0156C5.21764 21.6015 6.22724 21.6015 6.84995 21.0156L7.93278 20.2516C8.90233 19.5676 10.2966 20.1109 10.468 21.2395L10.6594 22.5C10.6594 23.3284 11.3734 24 12.254 24H13.8485C14.7291 24 15.4431 23.3284 15.4431 22.5L15.6346 21.2395C15.8059 20.1109 17.2002 19.5676 18.1697 20.2516L19.2525 21.0156C19.8753 21.6015 20.8849 21.6015 21.5076 21.0156L22.6351 19.9549C23.2578 19.3692 23.2578 18.4195 22.6351 17.8336L21.8229 16.8149C21.0958 15.9029 21.6734 14.5913 22.8731 14.4301L24.2131 14.25C25.0937 14.25 25.8076 13.5784 25.8076 12.75V11.25C25.8076 10.4216 25.0937 9.75 24.2131 9.75L22.8731 9.56987C21.6734 9.40867 21.0958 8.09707 21.8229 7.185L22.6351 6.16637C23.2578 5.58059 23.2578 4.63084 22.6351 4.04505L21.5076 2.98439C20.8849 2.3986 19.8753 2.3986 19.2525 2.98439L18.1697 3.74837C17.2002 4.43241 15.8059 3.88912 15.6346 2.76051L15.4431 1.5C15.4431 0.671573 14.7291 0 13.8485 0H12.254ZM13.0513 15C14.8125 15 16.2403 13.6568 16.2403 12C16.2403 10.3432 14.8125 9 13.0513 9C11.29 9 9.86218 10.3432 9.86218 12C9.86218 13.6568 11.29 15 13.0513 15Z" fill="#A098AE"/>
</svg>
