<svg width="28" height="28" viewBox="0 0 28 28" fill="none" xmlns="http://www.w3.org/2000/svg">
<path d="M26.2671 22.1333C25.3337 22 24.4004 21.8667 23.3337 21.8667C20.0004 21.8667 16.8004 22.8 14.0004 24.6667C11.2004 22.9333 8.00039 21.8667 4.66705 21.8667C3.73372 21.8667 2.66705 22 1.73372 22.1333C1.06705 22.2667 0.533719 22.9333 0.667053 23.7333C0.800386 24.5333 1.46705 24.9333 2.26705 24.8C3.06705 24.6667 3.86705 24.5333 4.66705 24.5333C7.73372 24.5333 10.6671 25.4667 13.2004 27.3333C13.6004 27.7333 14.2671 27.7333 14.8004 27.3333C18.0004 25.0667 22.0004 24.1333 25.7337 24.8C26.4004 24.9333 27.2004 24.4 27.3337 23.7333C27.4671 22.9333 26.9337 22.2667 26.2671 22.1333ZM26.2671 0.799992C25.3337 0.666658 24.4004 0.533325 23.3337 0.533325C20.0004 0.533325 16.8004 1.46666 14.0004 3.33332C11.2004 1.46666 8.00039 0.533325 4.66705 0.533325C3.73372 0.533325 2.66705 0.666658 1.73372 0.799992C1.20039 0.799992 0.667053 1.46666 0.667053 1.99999V18C0.667053 18.8 1.20039 19.3333 2.00039 19.3333C2.13372 19.3333 2.13372 19.3333 2.26705 19.3333C3.06705 19.2 3.86705 19.0667 4.66705 19.0667C7.73372 19.0667 10.6671 20 13.2004 21.8667C13.6004 22.2667 14.2671 22.2667 14.8004 21.8667C18.0004 19.6 22.0004 18.6667 25.7337 19.3333C26.4004 19.4667 27.2004 18.9333 27.3337 18.2667C27.3337 18.1333 27.3337 18.1333 27.3337 18V1.99999C27.3337 1.46666 26.8004 0.799992 26.2671 0.799992Z" fill="#47AA49"/>
</svg>
