<svg width="25" height="24" viewBox="0 0 25 24" fill="none" xmlns="http://www.w3.org/2000/svg">
<path d="M23.5878 20.586L18.5108 15.509C19.5598 13.928 20.1738 12.035 20.1738 10C20.1738 4.486 15.6878 0 10.1738 0C4.65983 0 0.173828 4.486 0.173828 10C0.173828 15.514 4.65983 20 10.1738 20C12.2088 20 14.1018 19.386 15.6828 18.337L20.7598 23.414C21.5398 24.195 22.8078 24.195 23.5878 23.414C24.3688 22.633 24.3688 21.367 23.5878 20.586ZM3.17383 10C3.17383 6.14 6.31383 3 10.1738 3C14.0338 3 17.1738 6.14 17.1738 10C17.1738 13.86 14.0338 17 10.1738 17C6.31383 17 3.17383 13.86 3.17383 10Z" fill="#4CBC9A"/>
</svg>
