<svg width="22" height="22" viewBox="0 0 22 22" fill="none" xmlns="http://www.w3.org/2000/svg">
<path d="M2.99967 0.333344C1.52691 0.333344 0.333008 1.52725 0.333008 3.00001V7.00001C0.333008 8.47281 1.52691 9.66668 2.99967 9.66668H6.99967C8.47247 9.66668 9.66634 8.47281 9.66634 7.00001V3.00001C9.66634 1.52725 8.47247 0.333344 6.99967 0.333344H2.99967ZM14.9997 0.333344C13.5269 0.333344 12.333 1.52725 12.333 3.00001V7.00001C12.333 8.47281 13.5269 9.66668 14.9997 9.66668H18.9997C20.4725 9.66668 21.6663 8.47281 21.6663 7.00001V3.00001C21.6663 1.52725 20.4725 0.333344 18.9997 0.333344H14.9997ZM0.333008 15C0.333008 13.5272 1.52691 12.3333 2.99967 12.3333H6.99967C8.47247 12.3333 9.66634 13.5272 9.66634 15V19C9.66634 20.4728 8.47247 21.6667 6.99967 21.6667H2.99967C1.52691 21.6667 0.333008 20.4728 0.333008 19V15ZM14.9997 12.3333C13.5269 12.3333 12.333 13.5272 12.333 15V19C12.333 20.4728 13.5269 21.6667 14.9997 21.6667H18.9997C20.4725 21.6667 21.6663 20.4728 21.6663 19V15C21.6663 13.5272 20.4725 12.3333 18.9997 12.3333H14.9997Z" fill="white"/>
</svg>
